<svg id="ninjaone-logo" data-name="Layer 2" xmlns="http://www.w3.org/2000/svg" viewBox="0 0 1179.75 244.07">
  <defs>
    <style>
      .ninja-letters {
        fill: #053856;
      }

      .ninja-logo-1 {
        fill: #00a6ce;
      }
    </style>
  </defs>
  <g id="Layer_1-2" data-name="Layer 1">
    <g>
      <g>
        <path class="ninja-letters" d="m121.04,64.3c10.15,10.45,15.23,25.96,15.23,46.51v80.48h-38.66v-74.2c0-11.15-2.32-19.46-6.94-24.95-4.62-5.49-11.31-8.23-20.07-8.23-9.75,0-17.51,3.18-23.29,9.53-5.79,6.36-8.68,15.81-8.68,28.35v69.5H0V62.47l36.93-17.63v22.34c5.11-5.92,11.47-10.5,19.07-13.72,7.6-3.23,15.94-4.84,25.03-4.84,16.51,0,29.86,5.23,40.02,15.67"></path>
        <polygon class="ninja-letters" points="165.04 62.5 165.04 191.3 203.67 191.3 203.67 44.86 165.04 62.5"></polygon>
        <polygon class="ninja-letters" points="203.67 .03 203.67 33.08 165.04 50.72 165.04 17.67 203.67 .03"></polygon>
        <polygon class="ninja-letters" points="397.07 17.7 397.07 50.75 435.7 33.05 435.7 0 397.07 17.7"></polygon>
        <path class="ninja-letters" d="m354.45,64.3c10.15,10.45,15.23,25.96,15.23,46.51v80.48h-38.66v-74.2c0-11.15-2.32-19.46-6.94-24.95-4.62-5.49-11.31-8.23-20.07-8.23-9.74,0-17.51,3.18-23.29,9.53-5.79,6.36-8.68,15.81-8.68,28.35v69.5h-38.66V62.47l36.93-17.63v22.34c5.11-5.92,11.47-10.5,19.07-13.72,7.6-3.23,15.94-4.84,25.03-4.84,16.51,0,29.86,5.23,40.02,15.67"></path>
        <path class="ninja-letters" d="m435.71,45.21v145.82c0,16.37-4.44,29.3-13.26,38.82-8.85,9.49-21.19,14.23-37.05,14.23-13.55,0-23.85-2.62-30.96-7.83l10.39-29.53c4.46,3.31,9.91,4.94,16.35,4.94,4.97,0,8.83-1.68,11.65-5.08,2.81-3.4,4.22-8.49,4.22-15.29V62.9l38.66-17.7Z"></path>
        <path class="ninja-letters" d="m600.47,62.47v128.82h-36.92v-16.2c-9.58,12.2-23.45,18.29-41.63,18.29-12.56,0-23.91-2.95-34.07-8.87-10.16-5.93-18.13-14.37-23.91-25.35-5.78-10.97-8.67-23.68-8.67-38.14s2.88-27.17,8.67-38.14c5.78-10.97,13.75-19.42,23.91-25.34,10.15-5.92,21.51-8.89,34.07-8.89,17.01,0,30.31,5.66,39.89,16.99v-20.78l38.66,17.63Zm-47.57,86.88c6.45-7.05,9.66-16.5,9.66-28.35s-3.22-21.3-9.66-28.35c-6.44-7.05-14.54-10.58-24.28-10.58s-18.09,3.53-24.52,10.58c-6.45,7.05-9.66,16.51-9.66,28.35s3.22,21.3,9.66,28.35c6.44,7.05,14.62,10.58,24.52,10.58s17.84-3.53,24.28-10.58"></path>
      </g>
      <g>
        <path class="ninja-logo-1" d="m1038.78,85.41c-5.94,5.22-9.58,12.36-10.9,21.42h65.66c-1.32-8.88-4.96-15.98-10.91-21.3-5.94-5.31-13.21-7.97-21.8-7.97s-16.11,2.61-22.05,7.84m81.65,83.44c-12.54,15.11-30.83,22.63-54.91,22.63-15,0-28.32-3.12-39.86-9.29-11.59-6.17-20.52-14.75-26.76-25.75-6.3-10.94-9.42-23.4-9.42-37.33s3.12-26.16,9.31-37.21c6.19-11.05,14.66-19.69,25.48-25.86,10.82-6.17,22.91-9.29,36.3-9.29s24.86,2.94,35.46,8.88c10.59,5.94,18.84,14.4,24.92,25.45,6.02,11.11,9.03,23.93,9.03,38.56,0,.53-.28,4.17-.72,10.94h-100.85c1.78,8.76,6.08,15.64,12.88,20.69,6.74,5.06,15.17,7.52,25.25,7.52,6.97,0,13.1-1.06,18.46-3.23,1.28-.53,2.56-1.12,3.79-1.82l31.66,15.11Z"></path>
        <path class="ninja-logo-1" d="m667.99,182.14c-14.46-8.18-25.77-19.46-33.95-33.83-8.17-14.37-12.26-30.52-12.26-48.46s4.09-34.1,12.26-48.47c8.19-14.37,19.5-25.64,33.95-33.83,14.45-8.19,30.68-12.28,48.69-12.28s34.19,4.09,48.56,12.28c14.37,8.19,25.68,19.46,33.95,33.83,8.26,14.37,12.39,30.53,12.39,48.47s-4.13,34.09-12.39,48.46c-8.26,14.37-19.58,25.65-33.95,33.83-14.37,8.19-30.56,12.29-48.56,12.29s-34.24-4.09-48.69-12.29m76.44-31.22c8.25-4.97,14.74-11.88,19.45-20.77,4.7-8.88,7.06-18.98,7.06-30.31s-2.36-21.43-7.06-30.31c-4.71-8.88-11.2-15.81-19.45-20.78-8.26-4.96-17.51-7.45-27.75-7.45s-19.49,2.49-27.75,7.45c-8.26,4.97-14.75,11.89-19.45,20.78-4.71,8.88-7.07,18.98-7.07,30.31s2.36,21.43,7.07,30.31c4.7,8.88,11.18,15.8,19.45,20.77,8.26,4.97,17.51,7.45,27.75,7.45s19.49-2.48,27.75-7.45"></path>
        <path class="ninja-logo-1" d="m953.92,64.3c10.15,10.45,15.23,25.96,15.23,46.51v80.48h-38.66v-74.2c0-11.15-2.32-19.46-6.94-24.95-4.62-5.49-11.31-8.23-20.07-8.23-9.75,0-17.51,3.18-23.29,9.53-5.79,6.36-8.68,15.81-8.68,28.35v69.5h-38.66V62.47l36.93-17.63v22.34c5.11-5.92,11.47-10.5,19.07-13.72,7.6-3.23,15.94-4.84,25.03-4.84,16.51,0,29.86,5.23,40.02,15.67"></path>
      </g>
    </g>
    <g>
      <path class="ninja-logo-1" d="m1178.28,164.04c-.98-2.35-2.36-4.42-4.12-6.2-1.76-1.78-3.84-3.16-6.23-4.14-2.39-.98-4.98-1.47-7.76-1.47s-5.36.5-7.76,1.5c-2.39,1-4.47,2.4-6.26,4.2-1.78,1.8-3.17,3.88-4.17,6.26-1,2.37-1.5,4.93-1.5,7.67s.49,5.3,1.48,7.67c.98,2.37,2.36,4.46,4.14,6.26,1.78,1.8,3.85,3.2,6.23,4.2,2.37,1,4.95,1.5,7.73,1.5s5.35-.5,7.73-1.5c2.37-1,4.46-2.4,6.26-4.2,1.8-1.8,3.2-3.89,4.2-6.28,1-2.39,1.5-4.98,1.5-7.76s-.49-5.35-1.47-7.7Zm-2.97,14.26c-.82,2.04-1.97,3.81-3.47,5.31s-3.25,2.68-5.26,3.53c-2,.85-4.19,1.28-6.56,1.28s-4.45-.42-6.45-1.25c-2-.83-3.74-2.01-5.23-3.53-1.48-1.52-2.63-3.28-3.45-5.28-.82-2-1.22-4.17-1.22-6.51s.42-4.5,1.25-6.5,1.98-3.76,3.45-5.28c1.46-1.52,3.21-2.7,5.23-3.53,2.02-.83,4.22-1.25,6.59-1.25s4.55.42,6.53,1.25c1.98.83,3.71,1.99,5.17,3.47,1.47,1.48,2.6,3.22,3.42,5.23.81,2,1.22,4.17,1.22,6.5s-.41,4.52-1.22,6.56Z"></path>
      <path class="ninja-logo-1" d="m1167.8,174.13c1.63-1.33,2.45-3.21,2.45-5.62s-.82-4.19-2.45-5.56c-1.63-1.37-3.89-2.06-6.78-2.06h-9.12v21.91h4.78v-6.67h4.34c.21,0,.36-.07.57-.07l4.38,6.75h4.78l-4.96-7.64c.71-.3,1.45-.57,2.01-1.03Zm-11.18-1.72v-7.73h4.12c1.56,0,2.76.33,3.61,1,.85.67,1.28,1.61,1.28,2.84s-.43,2.18-1.28,2.86-2.06,1.03-3.61,1.03h-4.12Z"></path>
    </g>
  </g>
</svg>
